<?xml version="1.0" encoding="UTF-8"?><svg id="Capa_1" xmlns="http://www.w3.org/2000/svg" viewBox="0 0 295.18 420.22"><path d="m180.59,276.08v-27.52l35.11-35.11c4.01,2.19,8.66,3.35,13.6,3.12,12.99-.62,23.63-11.08,24.45-24.06.98-15.54-11.83-28.34-27.37-27.37-12.98.82-23.45,11.46-24.06,24.45-.23,4.94.92,9.59,3.12,13.6l-24.84,24.84v-52.79l66.75-66.75c4.01,2.19,8.66,3.35,13.6,3.12,12.99-.62,23.63-11.09,24.45-24.07.97-15.54-11.83-28.34-27.37-27.37-12.98.82-23.45,11.46-24.06,24.45-.23,4.94.92,9.59,3.11,13.6l-32.03,32.03v-45.6c11.14-3.27,19.15-13.86,18.45-26.21-.72-12.83-11.06-23.31-23.88-24.2-15.05-1.04-27.59,10.86-27.59,25.69,0,11.7,7.81,21.57,18.49,24.71v60.13l-24.43,24.43h-.02v106.88h-36.94v-80.7h0l-21.98-21.98v-35.36c11.14-3.27,19.15-13.86,18.45-26.21-.72-12.83-11.06-23.31-23.88-24.2-15.05-1.04-27.59,10.86-27.59,25.69,0,11.7,7.81,21.57,18.49,24.71v20.83l-26.64-26.64V50.47c11.14-3.27,19.15-13.86,18.45-26.21C83.7,11.43,73.36.95,60.54.06c-15.05-1.04-27.59,10.86-27.59,25.69,0,11.7,7.81,21.57,18.49,24.71v87.73l.07.12,63.08,63.08v40.55l-31.78-31.78c2-3.66,3.15-7.87,3.15-12.34,0-14.23-11.53-25.76-25.76-25.76s-25.76,11.53-25.76,25.76,11.53,25.76,25.76,25.76c4.47,0,8.68-1.14,12.34-3.14l41.83,41.83.22-.22v14.03H0v14.53h295.18v-14.53h-114.59Z"/><path d="m38.54,333.34c1.53-2.55,2.3-5.61,2.3-9.17s-.75-6.62-2.26-9.25c-1.51-2.62-3.7-4.66-6.57-6.1-2.87-1.44-6.33-2.16-10.37-2.16H.49v53.58h11.33v-19h8.27l10.15,19h12.51l-11.37-20.82c.17-.07.34-.14.5-.21,2.9-1.36,5.12-3.32,6.66-5.87Zm-26.71-17.41h7.64c2.18,0,3.99.32,5.43.96,1.44.64,2.51,1.57,3.22,2.79.71,1.22,1.06,2.72,1.06,4.5s-.35,3.24-1.06,4.42c-.71,1.19-1.77,2.08-3.21,2.67-1.43.59-3.23.89-5.39.89h-7.69v-16.22Z"/><path d="m56.72,360.78c3.02,0,5.58-.71,7.68-2.15,2.1-1.43,3.61-3.32,4.51-5.68h.42v7.3h10.7v-40.19h-11.15v23.08c.02,1.8-.34,3.31-1.06,4.53-.72,1.22-1.67,2.14-2.84,2.76-1.17.62-2.42.93-3.77.93-2.11,0-3.79-.69-5.05-2.07s-1.89-3.25-1.91-5.62v-23.6h-11.15v25.59c.02,3.14.6,5.83,1.74,8.08,1.14,2.25,2.73,3.99,4.77,5.21,2.04,1.22,4.4,1.83,7.09,1.83Z"/><path d="m130.07,354.68h.31v5.57h10.57v-27.11c0-2.39-.46-4.44-1.39-6.16-.92-1.72-2.18-3.13-3.78-4.23-1.6-1.1-3.42-1.91-5.47-2.43-2.05-.52-4.19-.79-6.42-.79-3.21,0-6.03.48-8.46,1.45-2.43.97-4.42,2.35-5.95,4.13-.67.78-1.22,1.63-1.7,2.53v-7.77c-.49-.12-1.06-.22-1.7-.29-.65-.07-1.25-.1-1.81-.1-2.25,0-4.24.64-5.97,1.92-1.73,1.28-2.96,3.17-3.69,5.66h-.42v-7.01h-10.81v40.19h11.15v-22.74c0-1.64.37-3.09,1.11-4.34.74-1.26,1.75-2.24,3.03-2.94,1.28-.71,2.74-1.06,4.38-1.06.77,0,1.61.06,2.54.18.5.07.94.14,1.32.22-.22.61-.4,1.24-.54,1.91l10.31.84c.38-1.33,1.17-2.43,2.35-3.31,1.19-.88,2.78-1.32,4.79-1.32,1.9,0,3.37.45,4.41,1.36,1.04.91,1.56,2.19,1.56,3.85v.16c0,.85-.32,1.5-.97,1.94-.65.44-1.68.76-3.11.98-1.43.22-3.31.45-5.65.69-1.99.19-3.89.52-5.69,1-1.81.47-3.41,1.17-4.83,2.09-1.41.92-2.53,2.15-3.35,3.66-.82,1.52-1.23,3.39-1.23,5.62,0,2.65.58,4.86,1.74,6.63,1.16,1.77,2.74,3.1,4.75,4s4.29,1.35,6.85,1.35c1.99,0,3.74-.27,5.26-.8,1.52-.53,2.82-1.27,3.9-2.22,1.08-.95,1.94-2.05,2.59-3.31Zm-8.56-1.36c-1.71,0-3.12-.4-4.23-1.19-1.11-.79-1.66-1.95-1.66-3.47,0-1.05.27-1.92.81-2.63.54-.71,1.3-1.27,2.28-1.69.98-.42,2.12-.72,3.43-.92.61-.09,1.29-.19,2.04-.3.75-.11,1.5-.24,2.25-.39.75-.15,1.43-.31,2.03-.5.6-.18,1.08-.39,1.43-.62v4.26c0,1.41-.36,2.68-1.07,3.79-.72,1.12-1.7,2-2.96,2.66-1.26.65-2.7.98-4.34.98Z"/><rect x="144.09" y="306.67" width="11.15" height="53.58"/><polygon points="34.82 387.96 11.82 387.96 11.82 365.85 .49 365.85 .49 419.43 11.82 419.43 11.82 397.3 34.82 397.3 34.82 419.43 46.13 419.43 46.13 365.85 34.82 365.85 34.82 387.96"/><path d="m78.66,381.94c-1.6-1.1-3.42-1.91-5.47-2.43-2.05-.52-4.19-.79-6.42-.79-3.21,0-6.03.48-8.46,1.45-2.43.97-4.42,2.35-5.95,4.13-1.54,1.79-2.56,3.9-3.09,6.35l10.31.84c.38-1.33,1.17-2.43,2.35-3.31,1.19-.88,2.78-1.32,4.79-1.32,1.9,0,3.37.45,4.41,1.36,1.04.91,1.56,2.19,1.56,3.85v.16c0,.85-.32,1.5-.97,1.94-.65.44-1.68.76-3.11.98-1.43.22-3.31.45-5.65.69-1.99.19-3.89.52-5.69,1-1.81.47-3.41,1.17-4.83,2.09-1.41.92-2.53,2.15-3.35,3.66-.82,1.52-1.23,3.39-1.23,5.62,0,2.65.58,4.86,1.74,6.63,1.16,1.77,2.74,3.1,4.75,4s4.29,1.35,6.85,1.35c1.99,0,3.74-.27,5.26-.8,1.52-.53,2.82-1.27,3.9-2.22,1.08-.95,1.94-2.05,2.59-3.31h.31v5.57h10.57v-27.11c0-2.39-.46-4.44-1.39-6.16-.92-1.72-2.18-3.13-3.78-4.23Zm-5.9,23.13c0,1.41-.36,2.68-1.07,3.79-.72,1.12-1.7,2-2.96,2.66-1.26.65-2.7.98-4.34.98s-3.12-.4-4.23-1.19c-1.11-.79-1.66-1.95-1.66-3.47,0-1.05.27-1.92.81-2.63.54-.71,1.3-1.27,2.28-1.69.98-.42,2.12-.72,3.43-.92.61-.09,1.29-.19,2.04-.3.75-.11,1.5-.24,2.25-.39.75-.15,1.43-.31,2.03-.5.6-.18,1.08-.39,1.43-.62v4.26Z"/><path d="m100.73,388.81c1.28-.93,2.79-1.4,4.51-1.4,2.04,0,3.69.62,4.96,1.84s2.04,2.85,2.34,4.85h10.52c-.16-3.1-1-5.81-2.54-8.11-1.54-2.3-3.62-4.09-6.25-5.36-2.63-1.27-5.7-1.91-9.21-1.91-4.06,0-7.57.88-10.52,2.63-2.95,1.75-5.22,4.19-6.82,7.3s-2.39,6.73-2.39,10.84.79,7.66,2.37,10.78c1.58,3.12,3.85,5.56,6.8,7.31,2.96,1.75,6.49,2.63,10.61,2.63,3.58,0,6.67-.65,9.29-1.96,2.62-1.31,4.67-3.13,6.16-5.46,1.49-2.33,2.32-5.03,2.5-8.1h-10.52c-.21,1.41-.65,2.62-1.32,3.62-.67,1-1.52,1.77-2.54,2.29s-2.17.79-3.44.79c-1.73,0-3.24-.47-4.53-1.41-1.29-.94-2.29-2.31-3-4.11-.71-1.8-1.06-3.98-1.06-6.54s.36-4.68,1.07-6.46,1.71-3.14,3-4.07Z"/><polygon points="162.12 379.25 149.33 379.25 136.45 394.5 135.85 394.5 135.85 365.85 124.71 365.85 124.71 419.43 135.85 419.43 135.85 406.67 138.87 403.23 149.82 419.43 162.88 419.43 147.22 396.65 162.12 379.25"/><path d="m191.67,383.8c-1.72-1.69-3.72-2.96-6.02-3.81s-4.77-1.27-7.42-1.27c-3.94,0-7.37.87-10.3,2.62s-5.18,4.18-6.79,7.3c-1.6,3.12-2.41,6.75-2.41,10.88s.8,7.91,2.41,11c1.61,3.1,3.89,5.49,6.87,7.17,2.97,1.68,6.53,2.53,10.66,2.53,3.31,0,6.24-.51,8.78-1.53,2.54-1.02,4.61-2.45,6.23-4.29,1.61-1.84,2.68-4,3.21-6.48l-10.31-.68c-.38,1.01-.94,1.87-1.67,2.56-.73.7-1.61,1.22-2.64,1.57-1.03.35-2.16.52-3.4.52-1.87,0-3.48-.39-4.84-1.18s-2.41-1.9-3.15-3.35c-.74-1.45-1.11-3.17-1.11-5.15v-.03h27.37v-3.06c0-3.42-.48-6.41-1.44-8.96s-2.3-4.68-4.02-6.37Zm-21.89,11.49c.07-1.44.42-2.77,1.1-3.96.73-1.3,1.75-2.34,3.05-3.11,1.3-.78,2.8-1.16,4.49-1.16s3.05.35,4.28,1.06c1.23.71,2.19,1.68,2.89,2.92.7,1.24,1.05,2.66,1.05,4.26h-16.85Z"/><path d="m246.2,396.1l-7.27-1.46c-1.87-.4-3.18-.93-3.95-1.6s-1.15-1.47-1.15-2.43c0-1.2.59-2.17,1.78-2.89,1.19-.72,2.64-1.08,4.37-1.08,1.29,0,2.4.21,3.34.64.93.43,1.69.99,2.26,1.7.58.71.95,1.5,1.12,2.37l10.2-.63c-.49-3.7-2.19-6.62-5.12-8.76s-6.92-3.22-12-3.22c-3.44,0-6.43.51-8.99,1.52-2.56,1.01-4.54,2.45-5.94,4.32-.72.96-1.25,2.01-1.6,3.15v-8.65c-.49-.12-1.06-.22-1.7-.29-.65-.07-1.25-.1-1.81-.1-2.25,0-4.24.64-5.97,1.92-1.73,1.28-2.96,3.17-3.69,5.66h-.42v-7.01h-10.81v40.19h11.15v-22.74c0-1.64.37-3.09,1.11-4.34.74-1.26,1.75-2.24,3.04-2.94s2.74-1.06,4.38-1.06c.77,0,1.61.06,2.54.18.77.1,1.4.22,1.89.34-.14.75-.22,1.53-.22,2.35,0,3,.96,5.47,2.87,7.4,1.91,1.94,4.83,3.3,8.75,4.08l6.96,1.39c1.74.35,3.04.85,3.87,1.5s1.26,1.49,1.28,2.5c-.02,1.2-.62,2.18-1.82,2.94-1.2.76-2.77,1.14-4.72,1.14s-3.62-.42-4.89-1.27c-1.27-.85-2.08-2.08-2.41-3.7l-10.96.58c.54,3.84,2.38,6.87,5.53,9.09,3.15,2.22,7.38,3.34,12.7,3.34,3.49,0,6.57-.55,9.25-1.66,2.68-1.11,4.79-2.66,6.33-4.64s2.32-4.3,2.32-6.93c0-2.9-.96-5.23-2.88-7.01-1.92-1.78-4.83-3.07-8.74-3.87Z"/></svg>